# Blender v3.0.0 OBJ File: ''
# www.blender.org
mtllib stone_2.mtl
o Cube_Cube.002
v -0.696596 0.000000 1.000000
v -1.363748 0.000000 0.332848
v -1.363748 0.270099 0.332848
v -0.696596 0.270099 1.000000
v -1.363748 0.000000 -0.332848
v -0.332848 0.000000 -0.614375
v -0.332848 0.270099 -0.614375
v -1.363748 0.270099 -0.332848
v 1.000000 0.000000 0.332848
v 0.332848 0.000000 1.000000
v 0.332848 0.270099 1.000000
v 1.000000 0.270099 0.332848
v 0.332848 0.000000 -0.614375
v 1.000000 0.000000 0.052776
v 1.000000 0.270099 0.052776
v 0.332848 0.270099 -0.614375
v -0.656964 0.497792 0.880930
v -1.244678 0.497792 0.293216
v -1.244678 0.497792 -0.293216
v -0.293216 0.497792 -0.495305
v 0.293216 0.497792 -0.495305
v 0.880930 0.497792 0.092409
v 0.880930 0.497792 0.293216
v 0.293216 0.497792 0.880930
v -0.123909 0.574425 0.204904
v 0.293216 0.545576 0.420759
v 0.293216 0.545576 -0.020990
v -0.784078 0.574425 -0.088505
vt 0.375000 0.833394
vt 0.625000 0.833394
vt 0.625000 0.916606
vt 0.375000 0.916606
vt 0.375000 0.583394
vt 0.625000 0.583394
vt 0.625000 0.666606
vt 0.375000 0.666606
vt 0.625000 0.333394
vt 0.625000 0.166606
vt 0.625000 0.166606
vt 0.625000 0.333394
vt 0.375000 0.083394
vt 0.625000 0.083394
vt 0.375000 0.166606
vt 0.375000 0.333394
vt 0.625000 0.416606
vt 0.375000 0.416606
vt 0.375000 0.000000
vt 0.625000 0.000000
vt 0.125000 0.583394
vt 0.208394 0.500000
vt 0.291606 0.500000
vt 0.291606 0.750000
vt 0.208394 0.750000
vt 0.125000 0.666606
vt 0.625000 0.583394
vt 0.708394 0.618713
vt 0.708394 0.633856
vt 0.625000 0.666606
vt 0.625000 0.000000
vt 0.625000 0.083394
vt 0.625000 0.416606
vt 0.625000 0.833394
vt 0.625000 0.916606
vt 0.708394 0.750000
vt 0.750314 0.632842
vt 0.708394 0.500000
vt 0.791606 0.500000
vt 0.875000 0.583394
vt 0.834629 0.585953
vt 0.875000 0.666606
vt 0.791606 0.750000
vn 0.0000 0.0000 1.0000
vn 1.0000 0.0000 0.0000
vn -0.2184 0.3881 -0.8953
vn -1.0000 0.0000 0.0000
vn 0.0000 0.0000 -1.0000
vn -0.7071 0.0000 0.7071
vn -0.2634 0.0000 -0.9647
vn 0.7071 0.0000 -0.7071
vn 0.7071 0.0000 0.7071
vn 0.0000 -1.0000 0.0000
vn 0.0810 0.9967 0.0000
vn -0.6343 0.4421 0.6343
vn 0.8861 0.4634 0.0000
vn -0.8861 0.4634 0.0000
vn 0.0000 0.4634 -0.8861
vn 0.6343 0.4421 0.6343
vn 0.0000 0.4634 0.8861
vn 0.6343 0.4421 -0.6343
vn 0.0153 0.9945 0.1033
vn 0.0000 0.9941 -0.1088
vn -0.0521 0.9681 -0.2452
vn -0.0631 0.9960 0.0631
vn -0.0575 0.9899 0.1294
vn 0.0000 0.9936 0.1126
vn 0.0690 0.9976 0.0000
vn 0.1027 0.9894 0.1027
vn 0.0997 0.9900 -0.0997
vn 0.0145 0.9949 -0.1002
vn 0.0540 0.9911 -0.1215
vn -0.1641 0.9864 0.0000
usemtl None
s off
f 10/1/1 11/2/1 4/3/1 1/4/1
f 14/5/2 15/6/2 12/7/2 9/8/2
f 7/9/3 8/10/3 19/11/3 20/12/3
f 2/13/4 3/14/4 8/10/4 5/15/4
f 6/16/5 7/9/5 16/17/5 13/18/5
f 1/19/6 4/20/6 3/14/6 2/13/6
f 7/9/7 6/16/7 5/15/7 8/10/7
f 15/6/8 14/5/8 13/18/8 16/17/8
f 11/2/9 10/1/9 9/8/9 12/7/9
f 5/21/10 6/22/10 13/23/10 14/5/10 9/8/10 10/24/10 1/25/10 2/26/10
f 22/27/11 27/28/11 26/29/11 23/30/11
f 3/14/12 4/20/12 17/31/12 18/32/12
f 12/7/13 15/6/13 22/27/13 23/30/13
f 8/10/14 3/14/14 18/32/14 19/11/14
f 16/17/15 7/9/15 20/12/15 21/33/15
f 11/2/16 12/7/16 23/30/16 24/34/16
f 4/3/17 11/2/17 24/34/17 17/35/17
f 15/6/18 16/17/18 21/33/18 22/27/18
f 24/36/19 26/29/19 25/37/19
f 25/37/20 21/38/20 20/39/20
f 20/39/21 19/40/21 28/41/21
f 18/42/22 17/43/22 25/37/22
f 18/42/23 25/37/23 28/41/23
f 25/37/24 17/43/24 24/36/24
f 25/37/25 26/29/25 27/28/25
f 23/30/26 26/29/26 24/36/26
f 27/28/27 22/27/27 21/38/27
f 27/28/28 21/38/28 25/37/28
f 28/41/29 25/37/29 20/39/29
f 28/41/30 19/40/30 18/42/30
